<svg xmlns="http://www.w3.org/2000/svg" xmlns:xlink="http://www.w3.org/1999/xlink" viewBox="0,0,256,256" width="50px" height="50px"><g fill="none" fill-rule="nonzero" stroke="none" stroke-width="1" stroke-linecap="butt" stroke-linejoin="none" stroke-miterlimit="10" stroke-dasharray="" stroke-dashoffset="0" font-family="none" font-weight="none" font-size="none" text-anchor="none" style="mix-blend-mode: normal"><path transform="scale(5.12,5.12)" d="M23.6968,2.37221c0.19392,0.1884 0.30329,0.44728 0.3032,0.71764v6.04102c-0.00015,0.5046 -0.37619,0.93005 -0.87695,0.99219c-7.39693,0.91876 -13.12305,7.21614 -13.12305,14.87695c0,8.30003 6.69997,15 15,15c8.30003,0 15,-6.69997 15,-15c0,-1.11717 -0.12167,-2.2143 -0.35547,-3.26172c-0.08327,-0.37213 0.05233,-0.75922 0.34961,-0.99805l5.05078,-4.05078c0.25138,-0.20127 0.5843,-0.26919 0.89442,-0.18246c0.31013,0.08673 0.55952,0.31749 0.67003,0.61996c0.89951,2.45796 1.39063,5.11436 1.39063,7.87305c0,12.69047 -10.30953,23 -23,23c-12.69047,0 -23,-10.30953 -23,-23c0,-11.99045 9.19323,-21.85058 20.91016,-22.90625c0.02014,-0.00191 0.04033,-0.00322 0.06055,-0.00391c0.27025,-0.00789 0.53218,0.09397 0.72609,0.28236zM29.17969,2.38672c5.1571,0.94146 9.71493,3.61847 13.04883,7.38086c0.29468,0.33337 0.33368,0.82132 0.0957,1.19727l-3.38867,5.35938c-0.17837,0.28224 -0.48581,0.45685 -0.81958,0.46548c-0.33376,0.00863 -0.64982,-0.14987 -0.84253,-0.42251c-0.89557,-1.26839 -2.03745,-2.3233 -3.27344,-3.25977v11.89258c0,4.95852 -4.04148,9 -9,9c-4.95852,0 -9,-4.04148 -9,-9c0,-4.95852 4.04148,-9 9,-9c1.06276,0 2.0539,0.24337 3,0.58398v-13.21484c0.00101,-0.54396 0.43661,-0.98737 0.98047,-0.99805c0.06676,-0.00146 0.1335,0.00378 0.19922,0.01563z" id="strokeMainSVG" fill="#201f1f" stroke="#201f1f" stroke-linejoin="round"></path><g transform="scale(5.12,5.12)" fill="#ffffff" stroke="none" stroke-linejoin="miter"><path d="M22.9707,2.08984c-0.02022,0.00069 -0.04041,0.00199 -0.06055,0.00391c-11.71693,1.05567 -20.91016,10.9158 -20.91016,22.90625c0,12.69047 10.30953,23 23,23c12.69047,0 23,-10.30953 23,-23c0,-2.75869 -0.49112,-5.41508 -1.39062,-7.87305c-0.11051,-0.30247 -0.3599,-0.53323 -0.67003,-0.61996c-0.31013,-0.08673 -0.64305,-0.01881 -0.89442,0.18246l-5.05078,4.05078c-0.29728,0.23882 -0.43288,0.62592 -0.34961,0.99805c0.2338,1.04742 0.35547,2.14455 0.35547,3.26172c0,8.30003 -6.69997,15 -15,15c-8.30003,0 -15,-6.69997 -15,-15c0,-7.66082 5.72612,-13.9582 13.12305,-14.87695c0.50076,-0.06213 0.8768,-0.48758 0.87695,-0.99219v-6.04102c0.00009,-0.27036 -0.10929,-0.52924 -0.3032,-0.71764c-0.19392,-0.1884 -0.45584,-0.29025 -0.72609,-0.28236zM28.98047,2.37109c-0.54386,0.01068 -0.97946,0.45408 -0.98047,0.99805v4.63086v1.5v7.08398c-0.9461,-0.34062 -1.93724,-0.58398 -3,-0.58398c-4.95852,0 -9,4.04148 -9,9c0,4.95852 4.04148,9 9,9c4.95852,0 9,-4.04148 9,-9v-11.89258c1.23599,0.93646 2.37787,1.99137 3.27344,3.25977c0.19271,0.27264 0.50877,0.43114 0.84253,0.42251c0.33376,-0.00863 0.64121,-0.18324 0.81958,-0.46548l3.38867,-5.35937c0.23798,-0.37594 0.19897,-0.8639 -0.0957,-1.19727c-3.33389,-3.76238 -7.89173,-6.4394 -13.04883,-7.38086c-0.06572,-0.01185 -0.13246,-0.01708 -0.19922,-0.01562zM22,4.28906v4.04102c-7.94461,1.42263 -14,8.32232 -14,16.66992c0,9.37997 7.62003,17 17,17c9.37997,0 17,-7.62003 17,-17c0,-1.03734 -0.15127,-2.04361 -0.33203,-3.03711l3.4375,-2.75977c0.53619,1.85088 0.89453,3.77737 0.89453,5.79688c0,11.60953 -9.39047,21 -21,21c-11.60953,0 -21,-9.39047 -21,-21c0,-10.58566 7.83512,-19.24607 18,-20.71094zM30,4.67578c3.96052,0.96992 7.47799,3.0431 10.19922,5.90625l-2.24414,3.55078c-1.27282,-1.51307 -2.73242,-2.86122 -4.45312,-3.85742c-0.30941,-0.1795 -0.69112,-0.18008 -1.00107,-0.00152c-0.30995,0.17855 -0.50094,0.50905 -0.50088,0.86676v13.85938c0,3.87748 -3.12252,7 -7,7c-3.87748,0 -7,-3.12252 -7,-7c0,-3.87748 3.12252,-7 7,-7c1.2776,0 2.46388,0.34658 3.49805,0.94531c0.30971,0.17967 0.69184,0.18007 1.00192,0.00104c0.31008,-0.17903 0.50079,-0.51017 0.50003,-0.86822v-8.57812v-1.5z"></path></g></g></svg>